<svg width="11" height="11" fill="none" xmlns="http://www.w3.org/2000/svg">
   <symbol id="btn-x">
   <path d="M11 1.108 9.892 0 5.5 4.392 1.108 0 0 1.108 4.392 5.5 0 9.892 1.108 11 5.5 6.608 9.892 11 11 9.892 6.608 5.5 11 1.108Z" fill="#000"/>
   </symbol> 
   <symbol id="telegram">
   <path d="M24 0 0 13.5l7.67 2.84L19.5 5.25l-8.998 12.14.007.002-.009-.002V24l4.301-5.018L20.251 21 24 0Z" fill="#fff"/>
   </symbol>
   <symbol id="vector">
   <path d="M6 6a3 3 0 1 0 0-6 3 3 0 1 0 0 6Zm0 1.5c-2.002 0-6 1.005-6 3v.75c0 .412.338.75.75.75h10.5c.412 0 .75-.338.75-.75v-.75c0-1.995-3.998-3-6-3Z" fill="#212121"/></symbol>
</svg>